<svg id="Слой_1" data-name="Слой 1" xmlns="http://www.w3.org/2000/svg" viewBox="0 0 103 18"><defs><style>.cls-1{fill:#fff;}.cls-2{fill:#007ad2;}</style></defs><path class="cls-1" d="M0,0H17.8c3.87,0,6.25,2,6.25,5.29,0,3.57-2.38,4.86-6.25,5.19l-4.69.43L28.25,18h-8L6.43,11.53,4,11.76V18H0ZM4,3.67V8.34L18.05,7.06C19.27,7,20.1,6.47,20.1,5.31s-.83-1.64-2.05-1.64Z"/><path class="cls-1" d="M44.49,13.48H31.15L28.59,18H24.26L34.44,0H41.2L51.38,18H47.05Zm-2-3.55L37.83,1.69,33.15,9.93Z"/><path class="cls-1" d="M55.68,0h20V3.67h-16V7.08H71.56v3.57H59.68v3.7h16V18h-20Z"/><path class="cls-1" d="M80,0H90.72C98.6,0,103,2.28,103,8.62v.77C103,15.74,98.6,18,90.72,18H80Zm4,3.65V14.35h6.71c4.54,0,8.41-.67,8.41-4.95V8.62c0-4.29-3.87-4.95-8.41-4.95Z"/><path class="cls-2" d="M49,0H45.44l2.38,4.13h3.56Z"/></svg>