<svg width="16" height="14" viewBox="0 0 16 14" fill="none" xmlns="http://www.w3.org/2000/svg">
<path d="M8.90611 1.04735L8.90618 1.04728C9.08678 0.857429 9.38771 0.850202 9.57749 1.03095L15.0181 6.21286C15.2369 6.43172 15.35 6.70704 15.35 6.99983C15.35 7.29354 15.2362 7.5686 15.029 7.77623L9.57748 12.9687L9.57743 12.9688C9.4855 13.0564 9.36802 13.0998 9.25 13.0998C9.12436 13.0998 8.99943 13.0504 8.90604 12.9525C8.72515 12.7625 8.73251 12.4619 8.92252 12.2809L13.6969 7.73344L13.9684 7.47483H13.5934H1.125C0.862843 7.47483 0.65 7.26199 0.65 6.99983C0.65 6.73767 0.862843 6.52483 1.125 6.52483H13.6134H13.9896L13.7167 6.26599L8.92258 1.71909C8.92254 1.71905 8.92249 1.71901 8.92245 1.71896C8.73268 1.53785 8.72527 1.23721 8.90611 1.04735Z" fill="white" stroke="white" stroke-width="0.3"/>
</svg>
